<svg width="1050" height="1200" viewBox="0 0 1050 1200" fill="none" xmlns="http://www.w3.org/2000/svg">
<path d="M305.4 42C386.775 19.875 473.25 0 525 0C576.75 0 663.225 19.875 744.6 42C827.85 64.5 911.775 91.125 961.125 107.25C981.758 114.064 1000.05 126.56 1013.9 143.303C1027.75 160.045 1036.6 180.355 1039.43 201.9C1084.13 537.675 980.4 786.525 854.55 951.15C801.162 1021.55 737.532 1083.57 665.775 1135.13C640.99 1153.01 614.69 1168.69 587.175 1182C566.175 1191.9 543.6 1200 525 1200C506.4 1200 483.9 1191.9 462.825 1182C435.311 1168.69 409.011 1153.01 384.225 1135.13C312.469 1083.57 248.839 1021.55 195.45 951.15C69.6004 786.525 -34.1246 537.675 10.5754 201.9C13.4019 180.355 22.2486 160.045 36.0992 143.303C49.9497 126.56 68.2422 114.064 88.8754 107.25C160.519 83.7757 232.715 62.0195 305.4 42Z" fill="#84BF2C"/>
<path d="M338.209 148.868C271.197 167.324 204.643 187.405 138.606 209.093C132.572 211.04 127.207 214.645 123.126 219.498C119.045 224.35 116.412 230.254 115.529 236.533C76.5514 529.007 166.609 742.4 274.044 882.974C319.511 943.104 373.751 996.064 434.95 1040.08C459.294 1057.25 480.823 1069.63 497.779 1077.58C506.222 1081.57 513.094 1084.34 518.394 1085.88C520.731 1086.59 523.102 1087.18 525.5 1087.64C527.874 1087.18 530.222 1086.59 532.536 1085.88C537.883 1084.29 544.778 1081.52 553.221 1077.58C570.106 1069.63 591.706 1057.18 616.05 1040.08C677.249 996.064 731.489 943.104 776.956 882.974C884.392 742.471 974.449 529.007 935.471 236.533C934.588 230.254 931.955 224.35 927.874 219.498C923.793 214.645 918.428 211.04 912.394 209.093C866.591 194.107 789.269 169.693 712.791 148.938C634.694 127.761 562.86 112.071 525.5 112.071C488.211 112.071 416.306 127.69 338.209 148.868ZM319.494 76.4C395.832 55.6446 476.954 37 525.5 37C574.046 37 655.168 55.6446 731.506 76.4C809.602 97.5071 888.332 122.484 934.627 137.611C953.982 144.003 971.143 155.725 984.136 171.431C997.129 187.138 1005.43 206.191 1008.08 226.401C1050.01 541.39 952.708 774.835 834.649 929.269C784.566 995.315 724.874 1053.49 657.56 1101.85C634.309 1118.63 609.637 1133.34 583.826 1145.83C564.126 1155.11 542.949 1162.71 525.5 1162.71C508.051 1162.71 486.944 1155.11 467.174 1145.83C441.363 1133.34 416.691 1118.63 393.44 1101.85C326.126 1053.49 266.434 995.315 216.351 929.269C98.2918 774.835 0.987901 541.39 42.9207 226.401C45.5723 206.191 53.8713 187.138 66.8644 171.431C79.8576 155.725 97.0177 144.003 116.374 137.611C183.582 115.59 251.309 95.1801 319.494 76.4Z" fill="#D4F266"/>
<path d="M443.805 275.359C445.024 271.212 447.553 267.572 451.014 264.984C454.476 262.395 458.682 260.997 463.004 261H622.994C626.161 261.002 629.282 261.757 632.101 263.202C634.919 264.646 637.354 266.74 639.205 269.309C641.057 271.879 642.271 274.852 642.749 277.983C643.226 281.114 642.953 284.313 641.953 287.318L570.757 500.985H722.987C726.733 500.982 730.403 502.031 733.581 504.012C736.759 505.994 739.317 508.828 740.964 512.191C742.61 515.555 743.279 519.314 742.894 523.039C742.509 526.764 741.086 530.307 738.786 533.263L458.804 893.24C455.936 896.945 451.858 899.526 447.281 900.531C442.704 901.537 437.92 900.903 433.763 898.741C429.605 896.579 426.339 893.026 424.534 888.702C422.729 884.378 422.5 879.557 423.887 875.081L495.922 640.976H363.01C359.901 640.978 356.834 640.254 354.054 638.864C351.273 637.473 348.854 635.453 346.991 632.964C345.127 630.475 343.869 627.586 343.318 624.527C342.766 621.467 342.935 618.32 343.812 615.337L443.805 275.359Z" fill="#D4F266"/>
</svg>
