<svg width="1050" height="1200" viewBox="0 0 1050 1200" fill="none" xmlns="http://www.w3.org/2000/svg">
<path d="M305.4 42C386.775 19.875 473.25 0 525 0C576.75 0 663.225 19.875 744.6 42C827.85 64.5 911.775 91.125 961.125 107.25C981.758 114.064 1000.05 126.56 1013.9 143.303C1027.75 160.045 1036.6 180.355 1039.43 201.9C1084.13 537.675 980.4 786.525 854.55 951.15C801.162 1021.55 737.532 1083.57 665.775 1135.13C640.99 1153.01 614.69 1168.69 587.175 1182C566.175 1191.9 543.6 1200 525 1200C506.4 1200 483.9 1191.9 462.825 1182C435.311 1168.69 409.011 1153.01 384.225 1135.13C312.469 1083.57 248.839 1021.55 195.45 951.15C69.6004 786.525 -34.1246 537.675 10.5754 201.9C13.4019 180.355 22.2486 160.045 36.0992 143.303C49.9497 126.56 68.2422 114.064 88.8754 107.25C160.519 83.7757 232.715 62.0195 305.4 42Z" fill="#84BF2C"/>
<path d="M338.209 148.868C271.197 167.324 204.643 187.405 138.606 209.093C132.572 211.04 127.207 214.645 123.126 219.498C119.045 224.35 116.412 230.254 115.529 236.533C76.5514 529.007 166.609 742.4 274.044 882.974C319.511 943.104 373.751 996.064 434.95 1040.08C459.294 1057.25 480.823 1069.63 497.779 1077.58C506.222 1081.57 513.094 1084.34 518.394 1085.88C520.731 1086.59 523.102 1087.18 525.5 1087.64C527.874 1087.18 530.222 1086.59 532.536 1085.88C537.883 1084.29 544.778 1081.52 553.221 1077.58C570.106 1069.63 591.706 1057.18 616.05 1040.08C677.249 996.064 731.489 943.104 776.956 882.974C884.392 742.471 974.449 529.007 935.471 236.533C934.588 230.254 931.955 224.35 927.874 219.498C923.793 214.645 918.428 211.04 912.394 209.093C866.591 194.107 789.269 169.693 712.791 148.938C634.694 127.761 562.86 112.071 525.5 112.071C488.211 112.071 416.306 127.69 338.209 148.868ZM319.494 76.4C395.832 55.6446 476.954 37 525.5 37C574.046 37 655.168 55.6446 731.506 76.4C809.602 97.5071 888.332 122.484 934.627 137.611C953.982 144.003 971.143 155.725 984.136 171.431C997.129 187.138 1005.43 206.191 1008.08 226.401C1050.01 541.39 952.708 774.835 834.649 929.269C784.566 995.315 724.874 1053.49 657.56 1101.85C634.309 1118.63 609.637 1133.34 583.826 1145.83C564.126 1155.11 542.949 1162.71 525.5 1162.71C508.051 1162.71 486.944 1155.11 467.174 1145.83C441.363 1133.34 416.691 1118.63 393.44 1101.85C326.126 1053.49 266.434 995.315 216.351 929.269C98.2918 774.835 0.987901 541.39 42.9207 226.401C45.5723 206.191 53.8713 187.138 66.8644 171.431C79.8576 155.725 97.0177 144.003 116.374 137.611C183.582 115.59 251.309 95.1801 319.494 76.4Z" fill="#D4F266"/>
<path d="M443.805 275.359C445.024 271.212 447.553 267.572 451.014 264.984C454.476 262.395 458.682 260.997 463.004 261H622.994C626.161 261.002 629.282 261.757 632.101 263.202C634.919 264.646 637.354 266.74 639.205 269.309C641.057 271.879 642.271 274.852 642.749 277.983C643.226 281.114 642.953 284.313 641.953 287.318L570.757 500.985H722.987C726.733 500.982 730.403 502.031 733.581 504.012C736.759 505.994 739.317 508.828 740.964 512.191C742.61 515.555 743.279 519.314 742.894 523.039C742.509 526.764 741.086 530.307 738.786 533.263L458.804 893.24C455.936 896.945 451.858 899.526 447.281 900.531C442.704 901.537 437.92 900.903 433.763 898.741C429.605 896.579 426.339 893.026 424.534 888.702C422.729 884.378 422.5 879.557 423.887 875.081L495.922 640.976H363.01C359.901 640.978 356.834 640.254 354.054 638.864C351.273 637.473 348.854 635.453 346.991 632.964C345.127 630.475 343.869 627.586 343.318 624.527C342.766 621.467 342.935 618.32 343.812 615.337L443.805 275.359Z" fill="#D4F266" fill-opacity="0.5"/>
<path d="M230.04 600C217.347 600 208.013 599.44 202.04 598.32C196.067 597.2 193.08 595.893 193.08 594.4L209.88 558.28C214.173 559.027 223.04 559.773 236.48 560.52C249.92 561.08 267.373 561.36 288.84 561.36H310.96C317.493 561.36 321.88 560.427 324.12 558.56C326.36 556.693 327.48 553.987 327.48 550.44V547.64C327.48 543.16 326.36 540.08 324.12 538.4C321.88 536.72 317.493 535.88 310.96 535.88H246.84C227.987 535.88 214.267 532.427 205.68 525.52C197.093 518.427 192.8 506.947 192.8 491.08V481C192.8 472.787 194.293 465.227 197.28 458.32C200.453 451.413 205.773 445.907 213.24 441.8C220.707 437.507 230.973 435.36 244.04 435.36H337C348.387 435.36 357.813 436.013 365.28 437.32C372.933 438.627 376.76 440.027 376.76 441.52L368.36 476.24C363.133 475.68 353.24 475.12 338.68 474.56C324.307 473.813 306.013 473.44 283.8 473.44L263.64 473.16C257.853 473.16 253.747 474 251.32 475.68C248.893 477.173 247.587 480.067 247.4 484.36V486.32C247.4 490.613 248.707 493.6 251.32 495.28C253.933 496.96 258.133 497.8 263.92 497.8H325.52C337.467 497.8 347.64 499.013 356.04 501.44C364.44 503.867 370.88 508.347 375.36 514.88C379.84 521.227 382.08 530.653 382.08 543.16V553.24C382.08 567.24 378.44 578.533 371.16 587.12C364.067 595.707 351.653 600 333.92 600H230.04ZM475.292 600C455.318 600 440.852 595.613 431.892 586.84C422.932 578.067 418.452 563.88 418.452 544.28V493.04C418.452 472.88 423.398 458.227 433.292 449.08C443.185 439.747 457.185 435.08 475.292 435.08H568.812C581.692 435.08 591.492 435.827 598.212 437.32C605.118 438.627 608.572 440.027 608.572 441.52L599.892 476.52C595.225 475.96 586.078 475.4 572.452 474.84C559.012 474.093 542.025 473.72 521.492 473.72H495.452C486.678 473.72 480.705 475.4 477.532 478.76C474.545 481.933 473.052 486.88 473.052 493.6V541.48C473.052 547.827 474.358 552.773 476.972 556.32C479.772 559.68 485.932 561.36 495.452 561.36H518.132C526.718 561.36 534.465 561.36 541.372 561.36C548.278 561.173 554.345 560.987 559.572 560.8V539.52L548.372 539.8L511.692 542.6V503.96H613.052V588.24L615.852 594.12C615.852 595.613 611.932 597.013 604.092 598.32C596.252 599.44 582.998 600 564.332 600H475.292ZM836.761 602.8C829.294 602.8 820.987 601.68 811.841 599.44C802.694 597.013 793.641 591.227 784.681 582.08L772.921 570.32C767.321 564.72 761.907 560.147 756.681 556.6C751.641 553.053 745.854 550.44 739.321 548.76C732.787 546.893 724.574 545.96 714.681 545.96H712.441V600H657.841V457.76L655.041 435.08H784.681C796.627 435.08 806.241 436.573 813.521 439.56C820.987 442.36 826.681 446.187 830.601 451.04C834.707 455.707 837.507 461.027 839.001 467C840.494 472.973 841.241 479.04 841.241 485.2V490.52C841.241 501.72 838.347 511.8 832.561 520.76C826.961 529.533 818.001 535.787 805.681 539.52C810.347 542.32 814.734 545.213 818.841 548.2C823.134 551 827.987 553.987 833.401 557.16C839.561 560.707 845.254 563.32 850.481 565C855.894 566.493 860.374 567.427 863.921 567.8C867.467 568.173 869.521 568.36 870.081 568.36L861.681 600C859.441 600.56 855.987 601.12 851.321 601.68C846.841 602.427 841.987 602.8 836.761 602.8ZM744.921 508.72C749.587 508.72 754.067 508.627 758.361 508.44C762.841 508.253 766.854 507.973 770.401 507.6C776.747 506.853 781.041 504.893 783.281 501.72C785.707 498.36 786.921 494.347 786.921 489.68V486.6C786.921 482.493 785.707 479.32 783.281 477.08C781.041 474.84 776.841 473.72 770.681 473.72H712.441V507.6C717.107 507.787 722.241 508.067 727.841 508.44C733.441 508.627 739.134 508.72 744.921 508.72Z" fill="#0D0D0D"/>
</svg>
